<?xml version="1.0" encoding="utf-8"?>
<!-- Generator: Adobe Illustrator 27.5.0, SVG Export Plug-In . SVG Version: 6.00 Build 0)  -->
<svg version="1.1" xmlns="http://www.w3.org/2000/svg" xmlns:xlink="http://www.w3.org/1999/xlink" x="0px" y="0px"
	 viewBox="0 0 1122 1122" style="enable-background:new 0 0 1122 1122;" xml:space="preserve">
<g id="BG">
	<rect x="0" y="0" style="fill:transparent;" width="1122" height="1122"/>
</g>
<g id="Colors">
	<path style="fill:#131313;" d="M351.543,506.148c-3.433-20.862,16.237-39.322,36.752-44.434
		c20.515-5.112,42.061-1.239,63.201-1.596c11.617-0.197,24.789-2.626,30.983-12.457c4.917-7.804,3.832-17.814,2.573-26.952
		c-3.651-26.51-7.302-53.02-10.953-79.529c-1.545-11.215-4.009-23.904-13.665-29.813c-6.65-4.07-14.991-3.733-22.773-3.265
		c-52.801,3.176-105.602,6.352-158.402,9.527c-13.108,0.788-27.178,1.938-37.318,10.281c-8.306,6.834-12.588,17.604-13.771,28.295
		c-1.183,10.691,0.398,21.474,1.975,32.114c4.137,27.908,9.921,58.719,32.408,75.759c22.758,17.245,54.411,14.185,82.7,10.31
		c2.581,10.276,5.162,20.552,7.742,30.828L351.543,506.148z"/>
	<path style="fill:#131313;" d="M303.353,666.055c-18.716-6.733-34.919-22.456-38.486-42.024
		c-3.567-19.568,8.159-41.835,27.426-46.778c17.25-4.425,35.438,5.202,47.274,18.508c7.788,8.756,13.819,19.603,14.509,31.301
		c0.69,11.698-4.847,24.165-15.283,29.497c-5.06,2.585-10.929,3.42-15.761,6.409c-8.236,5.095-11.774,16.599-7.823,25.441
		c-4.474-8.255-6.018-11.104-10.493-19.358L303.353,666.055z"/>
	<path style="fill:#131313;" d="M689.58,876.13c-5.568-13.273,3.622-29.021,16.341-35.76c12.719-6.738,27.79-6.805,42.183-6.712
		c25.292,0.161,50.583,0.323,75.874,0.485c16.87,0.108,36.463-1.099,46.254-14.837c7.037-9.873,6.489-23.112,5.057-35.152
		c-2.431-20.442-6.572-40.681-12.366-60.435c-3.696-12.604-8.626-25.799-19.223-33.559c-8.486-6.213-19.356-7.983-29.81-9.122
		c-32.499-3.54-65.469-2.726-97.753,2.413c-19.448,3.096-41.054,9.557-49.877,27.163c-6.63,13.23-4.02,29.006-1.257,43.544
		c7.758,40.82,15.515,81.639,23.273,122.459L689.58,876.13z"/>
	<path style="fill:#131313;" d="M567.626,827.071c-33.247,5.829-64.415,6.861-98.169,6.67c-13.274-0.075-28.089-1.299-36.977-11.158
		c-8.51-9.44-8.623-23.519-8.258-36.223c0.515-17.941,1.03-35.883,1.545-53.824c0.193-6.703,0.564-13.922,4.731-19.175
		c5.015-6.323,13.854-7.803,21.859-8.832c31.152-4.003,62.305-8.006,93.457-12.009c8.036-1.033,16.896-1.882,23.587,2.685
		c8.336,5.69,9.78,17.183,10.452,27.253c1.443,21.634,2.886,43.269,4.328,64.903c0.497,7.443,0.98,15.037-0.874,22.263
		c-1.854,7.226-6.476,14.154-13.441,16.827L567.626,827.071z"/>
	<path style="fill:#131313;" d="M838.224,282.589c0.03,31.702-1.296,63.406-3.972,94.995c-0.63,7.433-1.579,15.436-6.627,20.929
		c-5.368,5.841-14.047,7.289-21.97,6.892c-7.923-0.397-15.796-2.282-23.706-1.679c-11.517,0.877-22.478,7.347-28.812,17.005
		c-6.334,9.658-7.898,22.29-4.113,33.202c-3.568-15.216-7.136-30.432-10.703-45.648c-22.529,0.509-45.058,1.019-67.587,1.529
		c-5.891,0.133-12.193,0.155-17.117-3.082c-7.997-5.256-8.897-16.424-8.976-25.993c-0.298-36.402-0.596-72.804-0.894-109.206
		c-0.061-7.477,0.269-15.906,5.782-20.958c6.399-5.864,16.407-4.255,24.858-2.276c51.849,12.138,109.87,21.33,161.719,33.469
		L838.224,282.589z"/>
	<path style="fill:#131313;" d="M428.034,625.834c1.189,12.376,0.71,17.562,0.335,30.1c-0.816-11.946,3.5-25.501,14.772-31.285
		c11.272-5.784,24.535-5.674,37.203-5.477c110.616,1.717,221.285,0.014,331.797-5.105c7.998-0.37,16.296-0.838,23.361-4.605
		c16.111-8.591,19.365-29.864,20.724-48.072c0.867-11.618,1.716-23.468-1.07-34.781c-2.786-11.313-9.87-22.205-20.683-26.542
		c-4.938-1.98-10.323-2.494-15.623-2.964c-116.141-10.302-233.258-9.568-349.261,2.187c-15.095,1.53-32.261,4.501-40.254,17.397
		c-5.312,8.571-5.03,19.342-4.577,29.415c1.167,25.922,2.127,47.257,3.294,73.179L428.034,625.834z"/>
</g>
<g id="Objects">
	<path fill="#fdfdfd" d="M685.996,786.058c5.788,30.453,11.575,60.905,17.363,91.358c0.352,1.855,3.057,1.412,4.196,0.986
		c0.228-0.085,0.456-0.17,0.683-0.255c0.42-0.108,0.818-0.271,1.166-0.48c0.65-0.346,0.977-0.765,1.068-1.194
		c0.119-0.337,0.137-0.704-0.013-1.097c-3.983-10.432,0.485-21.518,8.471-28.77c9.326-8.469,22.636-10.214,34.729-10.647
		c26.617-0.955,53.439,0.161,80.071,0.331c18.074,0.115,40.612,1.369,54.275-12.887c7.258-7.573,9.289-18.072,9.078-28.235
		c-0.253-12.23-2.462-24.571-4.721-36.562c-2.355-12.502-5.317-24.916-8.992-37.097c-2.941-9.749-6.633-19.868-13.523-27.581
		c-7.088-7.934-16.78-11.732-27.045-13.634c-12.054-2.234-24.556-2.888-36.787-3.32c-25.565-0.901-51.456,0.539-76.639,5.175
		c-17.403,3.204-36.963,9.604-46.567,25.687c-6.351,10.635-6.338,23.269-4.743,35.183
		C679.995,757.447,683.279,771.762,685.996,786.058z M683.114,726.611c1.399-23.034,19.825-34.059,40.306-38.906
		c23.213-5.493,47.968-6.832,71.75-6.614c13.02,0.12,26.101,0.876,39.023,2.51c11.207,1.417,22.516,4.185,30.356,12.91
		c7.029,7.821,10.536,18.096,13.458,28.007c3.456,11.722,6.298,23.632,8.56,35.641c2.278,12.094,4.667,24.684,4.655,37.03
		c-0.01,10.465-2.67,21.122-11.675,27.443c-8.234,5.779-18.968,6.884-28.741,7.25c-11.498,0.431-23.058,0.015-34.561-0.058
		c-14.642-0.094-29.285-0.187-43.927-0.281c-12.588-0.08-25.491-0.588-37.793,2.574c-11.616,2.986-23.854,11.355-29.049,22.392
		c-3.576-18.818-7.152-37.635-10.729-56.453c-2.463-12.959-4.925-25.917-7.388-38.876
		C685.204,749.842,682.408,738.23,683.114,726.611z"/>
	<path  d="M256.571,397.423c4.92,23.967,14.501,48.931,37.316,61.061c22.734,12.088,50.021,9.369,74.681,6.059
		c1.901,7.57,3.802,15.14,5.704,22.71c-0.184,2.182-0.152,4.422,0.114,6.713c-0.055,0.224-0.03,0.435,0.068,0.627
		c0.008,0.059,0.011,0.117,0.019,0.176c0.231,1.649,2.786,1.598,4.429,0.625c0.127-0.058,0.254-0.118,0.369-0.192
		c0.484-0.311,0.968-0.621,1.452-0.932c0.639-0.41,1.187-1.228,0.99-2.014c-0.522-2.078-1.044-4.156-1.566-6.234
		c0.982-9.391,6.38-17.803,13.76-23.982c10.418-8.722,23.07-12.062,36.42-12.888c14.327-0.887,28.658,0.817,42.985,0.841
		c10.283,0.017,21.39-0.839,30.239-6.647c9.492-6.231,11.905-16.61,11.137-27.386c-1.026-14.398-3.757-28.83-5.726-43.126
		c-2.048-14.871-4.041-29.751-6.144-44.614c-1.397-9.872-3.273-21.07-11.023-28.136c-9.177-8.367-22.624-6.499-33.975-5.816
		c-15.18,0.913-30.361,1.826-45.541,2.739c-30.36,1.826-60.721,3.652-91.081,5.478c-22.46,1.351-50.991-0.02-63.982,22.293
		c-6.186,10.623-7.144,23.173-6.237,35.179C251.923,372.47,254.048,385.131,256.571,397.423z M257.941,337.683
		c2.949-12.984,11.092-23.216,24.079-27.059c11.721-3.469,24.545-3.247,36.649-3.976c28.38-1.707,56.761-3.414,85.141-5.121
		c13.86-0.834,27.72-1.667,41.581-2.501c6.498-0.391,12.995-0.84,19.496-1.168c7.146-0.361,14.899-0.453,20.852,4.164
		c8.763,6.797,10.148,19.52,11.559,29.719c1.878,13.577,3.74,27.156,5.61,40.734c1.878,13.633,4.034,27.262,5.599,40.934
		c1.497,13.083-0.947,25.725-14.839,30.261c-13.098,4.277-28.066,2.02-41.549,1.468c-13.737-0.563-28.021-0.794-41.302,3.305
		c-13.649,4.213-27.234,13.961-33.335,26.959c-1.17-4.658-2.34-9.317-3.51-13.975c-0.259-1.032-1.724-1.353-2.62-1.231
		c-22.27,3.03-46.674,6.171-68.07-2.666c-21.218-8.764-32.405-28.87-38.179-50.071c-2.739-10.059-4.477-20.355-6.025-30.654
		C257.143,363.925,255.011,350.583,257.941,337.683z"/>
	<path  d="M483.345,820.788c11.165,0.25,22.369,0.073,33.531-0.237c22.908-0.636,45.747-2.536,68.34-6.439
		c0.003-0.001,0.006-0.002,0.006-0.002c0.245-0.032,0.499-0.078,0.777-0.155c14.782-4.092,19.676-18.446,19.524-32.541
		c-0.225-20.776-2.605-41.717-3.987-62.447c-0.942-14.125,0.3-35.809-16.075-41.786c-7.377-2.693-15.614-1.45-23.187-0.482
		c-10.709,1.37-21.417,2.752-32.126,4.128c-20.734,2.664-41.559,4.947-62.236,8.02c-6.512,0.968-13.45,2.473-18.743,6.639
		c-6.427,5.058-7.875,12.81-8.215,20.574c-0.893,20.348-1.556,40.818-1.728,61.184c-0.134,15.78,2.901,32.213,18.867,39.172
		C465.988,819.857,474.83,820.597,483.345,820.788z M446.688,794.122c-1.945-7.703-1.766-15.773-1.545-23.65
		c0.261-9.303,0.534-18.606,0.801-27.909c0.261-9.083,0.399-18.179,0.798-27.256c0.352-8.008,1.754-16.68,9.771-20.525
		c7.241-3.473,16.306-3.58,24.143-4.588c9.086-1.167,18.172-2.335,27.258-3.503c18.172-2.335,36.342-4.69,54.517-7.005
		c8.428-1.074,18.265-2.359,24.849,4.286c4.791,4.836,6.319,11.922,7.11,18.451c2.379,19.629,2.791,39.67,4.106,59.398
		c0.968,14.519,6.191,43.76-13.076,49.279c-17.586,3.011-35.331,4.873-53.15,5.751c-16.942,0.835-34.212,1.524-51.16,0.566
		C465.351,816.528,450.879,810.718,446.688,794.122z"/>
	<path fill="#fdfdfd"   d="M358.534,663.785c9.246-3.213,17.015-7.232,21.749-16.255c10.108-19.264-0.571-41.32-15.19-54.906
		c-13.932-12.948-34.684-20.691-52.843-11.888c-15.717,7.619-24.876,25.512-23.517,42.694c1.737,21.966,19.676,38.931,39.264,46.532
		c3.44,7.449,7.681,14.578,11.59,21.789c1.071,1.975,6.652,0.571,5.796-1.553c-1.789-4.437-2.074-9.066-0.647-13.671
		C346.869,669.638,351.973,666.065,358.534,663.785z M343.522,668.804c-2.349,2.704-3.976,5.898-4.826,9.274
		c-1.826-3.367-3.59-6.764-5.17-10.234c-0.186-0.408-0.539-0.676-0.984-0.83c-0.06-0.026-0.103-0.055-0.169-0.08
		c-17.071-6.362-32.219-20.185-36.721-38.278c-4.022-16.162,2.507-35.778,17.337-44.351c34.432-19.905,87.062,40.073,56.882,69.754
		C362.411,661.395,350.567,660.694,343.522,668.804z"/>
	<path    d="M746,254.285c-7.779-1.621-15.547-3.292-23.297-5.044c-6.21-1.404-12.441-3.197-18.822-3.617
		c-10.701-0.704-20.798,3.822-23.436,14.915c-1.495,6.286-0.954,13.035-0.902,19.441c0.068,8.273,0.135,16.546,0.203,24.82
		c0.141,17.208,0.282,34.417,0.423,51.625c0.068,8.273,0.123,16.547,0.203,24.82c0.059,6.092,0.189,12.415,2.353,18.191
		c5.647,15.074,22.319,12.846,35.466,12.548c18.696-0.423,37.392-0.846,56.088-1.268c3.009,12.831,6.017,25.663,9.026,38.494
		c0.326,2.092,0.799,4.174,1.459,6.222c0.656,2.034,6.285,0.535,5.796-1.553c-0.474-2.02-0.947-4.039-1.421-6.059
		c-1.967-12.66,2.267-25.876,12.501-34.209c6.408-5.217,14.169-7.726,22.386-7.582c7.924,0.138,15.707,2.1,23.656,1.783
		c11.598-0.462,22.372-5.567,26.032-17.239c2.154-6.868,2.245-14.386,2.791-21.509c0.681-8.89,1.256-17.789,1.724-26.693
		c1.039-19.788,1.532-39.6,1.531-59.415c0-0.068-0.02-0.122-0.029-0.184c0.139-0.342,0.005-0.658-0.57-0.881
		c-0.059-0.023-0.12-0.042-0.179-0.064c-0.101-0.046-0.208-0.084-0.323-0.116c-5.212-1.942-10.853-2.832-16.271-4.026
		c-7.5-1.654-15.015-3.24-22.538-4.785c-15.636-3.21-31.308-6.24-46.977-9.283C777.235,260.58,761.597,257.535,746,254.285z
		 M855.283,280.098c6.153,1.339,12.758,2.231,18.674,4.417c-0.012,17.55-0.404,35.096-1.23,52.627
		c-0.42,8.906-0.948,17.808-1.582,26.701c-0.562,7.89-0.718,16.042-2.306,23.812c-1.704,8.337-6.382,14.766-15.141,16.367
		c-7.885,1.442-15.921-0.518-23.787-1.14c-12.899-1.021-25.716,2.623-35.178,11.726c-4.541,4.368-7.806,9.677-9.766,15.412
		c-1.703-7.264-3.406-14.527-5.109-21.791c-0.164-0.698-1.194-0.91-1.779-0.896c-15.24,0.345-30.481,0.689-45.721,1.034
		c-7.289,0.165-14.577,0.368-21.867,0.495c-7.107,0.124-14.666,0.028-19.388-6.147c-7.162-9.367-4.95-25.004-5.04-35.93
		c-0.122-14.892-0.244-29.784-0.366-44.675c-0.122-14.892-0.244-29.784-0.366-44.675c-0.049-6.028-0.516-12.387,1.075-18.285
		c2.36-8.754,9.25-11.017,17.559-9.942c13.21,1.709,26.359,5.751,39.406,8.463c13.758,2.859,27.547,5.562,41.34,8.244
		c15.688,3.051,31.382,6.07,47.044,9.251C839.608,276.76,847.453,278.394,855.283,280.098z"/>
	<path  d="M435.48,589.854c0.245,5.451,0.437,10.862,0.423,16.315c0.692,7.536,0.711,15,0.546,22.508
		c-0.277,2.515-0.343,5.058-0.211,7.592c0.043,0.821,5.751-0.12,5.796-1.553c0.078-2.505,0.154-5,0.209-7.49
		c0.509-4.629,1.774-9.153,4.078-13.259c5.108-9.107,14.395-12.586,24.38-13.687c9.404-1.038,19.004-0.443,28.442-0.314
		c9.936,0.136,19.872,0.244,29.808,0.325c39.746,0.322,79.495,0.204,119.238-0.356c39.412-0.555,78.818-1.545,118.208-2.968
		c19.449-0.703,38.927-1.305,58.357-2.443c13.046-0.764,26.268-3.797,34.391-14.884c7.627-10.409,9.464-24.274,10.531-36.784
		c1.41-16.523,2.961-34.779-5.774-49.692c-3.432-5.859-8.373-11.033-14.592-13.916c-7.745-3.591-16.82-3.621-25.172-4.326
		c-19.2-1.62-38.426-2.941-57.668-3.964c-78.16-4.154-156.574-3.318-234.631,2.442c-18.804,1.387-37.771,2.599-56.463,5.124
		c-11.9,1.607-25.303,4.473-34.124,13.267c-11.168,11.133-8.919,28.166-8.274,42.487
		C433.813,552.804,434.647,571.329,435.48,589.854z M438.407,511.207c0.638-8.09,3.269-15.869,9.501-21.346
		c5.759-5.061,13.288-7.274,20.691-8.58c17.637-3.111,35.935-3.868,53.773-5.252c75.977-5.892,152.327-7.038,228.449-3.48
		c19.247,0.9,38.479,2.099,57.688,3.606c16.982,1.332,36.622,0.102,47.608,15.495c9.62,13.481,9.346,30.596,8.247,46.398
		c-0.938,13.491-1.989,28.161-9.147,40.022c-4.66,7.721-11.661,12.489-20.696,13.72c-9.4,1.281-19.1,1.18-28.57,1.585
		c-19.194,0.821-38.391,1.54-57.593,2.155c-38.071,1.22-76.156,2.035-114.245,2.445c-37.758,0.406-75.52,0.414-113.277,0.024
		c-17.004-0.176-34.833-1.994-51.699,0.726c-10.495,1.692-20.788,5.526-26.935,13.998c-0.098-2.697-0.254-5.398-0.503-8.108
		c0.037-14.08-0.956-28.169-1.589-42.233c-0.388-8.609-0.775-17.218-1.163-25.826C438.569,528.155,437.744,519.612,438.407,511.207z
		"/>
</g>
</svg>
